<?xml version="1.0" encoding="UTF-8" standalone="no"?><!DOCTYPE svg PUBLIC "-//W3C//DTD SVG 1.1//EN" "http://www.w3.org/Graphics/SVG/1.1/DTD/svg11.dtd"><svg width="100%" height="100%" viewBox="0 0 4267 4267" version="1.1" xmlns="http://www.w3.org/2000/svg" xmlns:xlink="http://www.w3.org/1999/xlink" xml:space="preserve" xmlns:serif="http://www.serif.com/" style="fill-rule:evenodd;clip-rule:evenodd;stroke-linejoin:round;stroke-miterlimit:2;"><path id="アイコン" d="M4266.667,1395.786l0,1475.095c0,770.355 -625.431,1395.786 -1395.786,1395.786l-1475.095,0c-770.355,0 -1395.786,-625.431 -1395.786,-1395.786l0,-1475.095c0,-770.355 625.431,-1395.786 1395.786,-1395.786l1475.095,0c770.355,0 1395.786,625.431 1395.786,1395.786Z" style="fill:#fff;"/><clipPath id="_clip1"><path d="M4266.667,1395.786l0,1475.095c0,770.355 -625.431,1395.786 -1395.786,1395.786l-1475.095,0c-770.355,0 -1395.786,-625.431 -1395.786,-1395.786l0,-1475.095c0,-770.355 625.431,-1395.786 1395.786,-1395.786l1475.095,0c770.355,0 1395.786,625.431 1395.786,1395.786Z"/></clipPath><g clip-path="url(#_clip1)"><g id="Gemini_Generated_Image_46q9b946q9b946q9.png"><path d="M782.417,2123.618c522.422,99.588 611.302,365.08 626.457,363.681c15.835,-1.462 -49.6,-174.288 -126.945,-259.541c-197.077,-217.227 -519.55,-238.827 -523.321,-273.069c-1.996,-18.125 331.115,-613.541 488.873,-921.807c9.746,-19.045 116.177,-227.016 127.656,-234.991c37.389,-25.977 203.856,69.338 225.59,65.568c45.18,-7.837 188.682,-207.903 492.696,-164.036c248.767,35.895 302.197,261.662 310.082,294.979c126.351,533.891 -559.549,1329.114 -644.593,1878.761c-39.603,255.96 138.781,241.289 266.495,140.194c63.971,-50.637 199.789,-177.953 417.265,-579.331c298.966,-551.775 513.281,-1307.33 544.885,-1338.676c24.308,-24.109 265.836,-86.168 269.691,-82.75c11.011,9.76 -3.642,11.736 -145.883,403.337c-419.985,1156.255 -636.303,1915.257 -348.669,2077.295c41.998,23.659 104.737,31.161 152.996,5.545c7.156,-3.798 14.166,-7.863 21.259,-11.778c74.406,-41.073 -73.569,158.307 -291.743,94.247c-138.436,-40.647 -262.617,-200.955 -225.562,-553.466c39.746,-378.106 60.551,-374.255 121.407,-596.902c5.27,-19.282 -6.809,-12.142 -7.313,-11.198c-95.895,179.464 -432.493,939.366 -828.072,836.636c-115.613,-30.024 -238.275,-164.492 -163.357,-491.642c147.613,-644.589 786.272,-1386.523 633.358,-1836.389c-73.413,-215.976 -387.212,-138.707 -489.542,-36.486c-37.973,37.932 94.776,63.85 204.851,239.389c105.297,167.918 66.608,387.659 51.81,392.422c-26.623,8.569 0.636,-62.899 -22.072,-161.221c-11.202,-48.505 -61.398,-265.845 -453.263,-426.351c-47.871,-19.608 -46.378,10.431 -138.851,179.105c-138.459,252.556 -355.805,661.354 -386.461,719.014c-14.479,27.233 -26.35,46.412 -0.393,57.109c149.89,61.769 504.828,180.966 542.894,652.152c5.958,73.744 -5.268,232.864 -21.359,234.371c-23.728,2.222 6.28,-63.96 -43.723,-170.797c-24.065,-51.418 -127.163,-271.699 -615.74,-352.786c-293.614,-48.729 -462.718,-5.045 -474.261,-24.866c-4.193,-7.201 1.651,-11.542 158.794,-298.451c207.101,-378.123 464.489,-845.129 504.966,-918.57c23.31,-42.293 30.193,-40.43 115.007,-47.468c62.815,-5.212 101.607,-13.784 86.206,20.78c-32.359,72.623 -44.979,83.016 -61.147,83.618c-49.43,1.842 -56.37,-0.74 -81.313,45.352c-126.02,232.871 -129.166,230.636 -254.436,463.518c-180.611,335.766 -280.746,506.313 -276.189,518.136c7.55,19.587 19.295,-10.494 260.97,27.363Z" style="fill:#131313;"/><path d="M3024.433,2077.813c-12.002,-1.433 -26.789,-0.759 -35.456,-19.389c-10.149,-21.818 5.815,-44.898 8.034,-48.107c26.125,-37.771 172.387,-8.524 190.612,-12.937c15.365,-3.72 89.685,-246.336 122.315,-296.25c29.833,-45.637 209.187,-83.715 222.13,-62.524c11.161,18.274 -133.611,358.986 -131.555,370.42c1.472,8.19 371.299,21.56 462.012,-109.3c24.282,-35.028 15.813,9.804 15.01,13.609c-57.346,271.676 -489.119,180.299 -511.306,190.602c-5.241,2.434 -228.817,592.868 -270.083,836.232c-36.915,217.707 94.524,136.681 123.849,111.615c135.155,-115.528 228.327,-312.315 273.879,-403.057c27.667,-55.115 60.418,-19.223 63.498,-0.691c4.757,28.626 -262.532,629.197 -532.625,595.088c-268.583,-33.919 -107.9,-482.162 40.1,-900.553c78.506,-221.934 99.622,-254.133 88.624,-256.371c-0.943,-0.192 -118.712,-7.724 -129.036,-8.384Z" style="fill:#131313;"/><path d="M3783.349,1061.65c19.497,76.921 34.676,101.165 11.853,118.741c-2.28,1.756 -70.258,45.945 -125.865,116.232c-43.758,55.31 -38.31,95.345 -89.125,84.578c-1.08,-0.229 -163.118,-42.191 -176.272,-64.768c-16.192,-27.79 14.942,-91.245 -25.438,-229.704c-15.352,-52.641 -13.716,-58.917 28.541,-94.021c66.076,-54.891 213.535,-201.05 263.182,-295.291c18.308,-34.753 27.275,-23.657 28.246,-21.013c2.718,7.401 -9.683,31.52 -46.276,155.808c-49.833,169.255 -58.332,178.634 -69.228,190.658c-10.466,11.549 -77.037,40.543 -51.442,96.163c32.884,71.458 149.926,29.067 113.089,-52.478c-24.958,-55.25 -4.54,-57.805 81.529,-364.128c6.14,-21.852 15.997,-14.546 16.58,-8.415c5.381,56.572 -20.048,101.84 40.627,367.637Z" style="fill:#131313;"/><path d="M3500.794,1498.941c-110.074,-38.212 -109.913,-37.724 -120.642,-42.413c-32.082,-14.021 -6.582,-84.101 16.05,-84.645c12.816,-0.308 175.93,53.975 187.127,58.477c24.714,9.936 17.562,32.204 7.953,60.675c-14.734,43.657 -45.443,22.793 -90.488,7.906Z" style="fill:#131313;"/></g></g></svg>