<svg xmlns="http://www.w3.org/2000/svg" xml:space="preserve" style="fill-rule:evenodd;clip-rule:evenodd;stroke-linejoin:round;stroke-miterlimit:2" viewBox="0 0 5834 2084"><title>Unitools</title><path d="M2129.219 1190.471c1.705-.922 8.502 4.807 16.256-12.193 40.987-89.868 61.34-108.25 107.681-166.619 95.484-120.27 194.476-146.99 243.392-100.525 118.77 112.819-125.082 445.985-118.607 576.497 1.722 34.702 54.019 85.43 168.071-81.287 66.858-97.73 105.472-183.597 202.223-468.117 5.88-17.291 10.342-16.609 125.015-35.735 10.73-1.79 38.824-12.543 30.642 9.556-114.468 309.162-114.872 308.737-123.735 336.292-24.479 76.108-96.625 244.64-42.725 271.119 78.007 38.323 205.356-198.621 216.662-218.073 42.21-72.622 36.37-81.794 56.945-136.036 3.573-9.418 39.712-104.693 44.558-117.764 99.44-268.244 101.897-269.084 98.81-273.072-3.321-4.29-25.065-1.989-27.237-1.759-105.689 11.184-112.193 36.288-122.213 32.701-8.196-2.934 4.792-16.401 5.814-17.461 88.379-91.642 165.866-56.335 179.68-88.627 3.945-9.221 65.753-178.445 66.03-179.297 10.62-32.624 16.05-30.66 49.772-37.895 87.595-18.795 115.987-37.187 121.872-34.544 7.492 3.364 1.076 6.583-67.829 182.454-19.057 48.64-38.454 72.753-6.594 72.636 561.706-2.053 643.056-23.562 735.528-69.428 83.635-41.483 70.284-57.535 82.177-70.412 17.703-19.167 10.053 17.329 9.703 19-57.771 275.603-405.47 195.054-697.045 189.505-168.153-3.2-171.972-8.622-178.953 2.416-9.074 14.346-129.503 327.582-137.269 350.037-34.765 100.517-147.266 371.644-81.943 398.669 72.102 29.829 177.024-155.468 184.157-166.049 35.708-52.969 34.254-167.829 129.087-295.937 99.053-133.808 159.404-139.426 214.961-143.658 10.057-.766 45.463-29.49 82.583-26.408 123.766 10.277 114.207 180.743 113.181 199.032-5.393 96.17-16.785 97.999-10.201 103.022 4.195 3.201 44.426-11.431 48.173-12.794 99.26-36.101 68.555-72.095 148.474-160.396 124.546-137.607 157.856-81.548 205.823-111.199 80.146-49.543 150.65 9.516 167.149 64.905 34.286 115.098 2.615 184.227 2.063 205.662-.45 17.471 66.463-14.473 95.955-37.867 11.7-9.281 12.244-10.237 66.674-174.368 56.93-171.668 186.22-492.215 296.453-608.878 9.948-10.528 106.601-112.819 167.801-67.984 135.758 99.454-130.455 572.015-327.596 765.842-40.954 40.265-35.087 44.92-70.663 163.975-16.198 54.205-63.254 235.583-43.919 281.216 55.772 131.633 314.365-357.337 337.608-398.963 36.504-65.378 24.482-70.721 23.23-94.166-7.774-145.566 118.397-212.681 179.66-186.549 56.987 24.309-2.431 80.773-5.727 84.956-74.556 94.638-54.25 125.299.57 251.459 10.299 23.703 8.182 38.805 31.113 26.607 8.858-4.712 204.394-93.062 301.721-57.306 130.188 47.829 35.611 178.011 27.727 141.726-.946-4.353-.872-8.888-1.84-13.236-14.123-63.455-122.801-105.419-311.991-25.58-1.598.674-15.807 6.671-12.765 17.52 11.906 42.456 18.99 41.158 21.917 123.868.538 15.194 3.711 104.849-64.724 178.681-96.641 104.263-292.538 106.223-322.853 6.623-43.275-142.181 157.308-259.678 186.548-279.383 21.574-14.539 44.435-9.81 28.267-57.408-29.297-86.244-28.326-86.555-31.623-93.75-6.791-14.821-27.921 31.983-29.224 34.285-154.312 272.569-294.64 508.957-428.758 459.572-139.872-51.503-41.852-339.425-26.974-406.348 5.192-23.356-11.395.631-88.573 28.751-41.117 14.982-11.25 62.76-134.174 236.163-53.23 75.089-124.91 120.595-161.339 132.774-140.954 47.125-295.776-47.613-193.804-377.604 4.881-15.796 3.295-26.021-10.8-17.748-43.828 25.723-58.909 25.238-82.461 34.309-14.117 5.437-23.207 42.136-24.088 44.46-21.069 55.589-80.746 163.358-116.547 204.909-203.861 236.6-365.792 88.136-368.464-45.861-1.188-59.572-20.979 8.14-77.087 73.332-101.678 118.138-188.649 100.209-215.94 82.215-86.581-57.088-45.358-194.861-45.682-195.549-7.445-15.799-22.305 27.621-33.548 45.177-63.969 99.883-125.909 134.266-139.849 142.004-130.809 72.611-179.351-40.263-182.43-85.289-4.796-70.135 13.739-92.211 12.959-96.004-.048-.233-8.839-13.312-17.715 6.465-15.307 34.107-42.113 67.407-44.832 71.077-158.397 213.775-317.581 117.338-297.659-16.021 24.946-166.988 150.313-381.332 146.381-452.959-.833-15.176-19.275-62.745-92.956 19.85-160.395 179.799-262.961 479.148-266.67 487.802-25.087 58.523-15.414 73.321-47.742 74.566-49.805 1.918-114.635 6.332-116.279 6.311-16.64-.206 2.302-32.655 4.876-40.132 164.584-478.09 176.139-474.412 188.362-541.046 15.383-83.861-67.298-66.572-133.986 60.002-.785 1.491-20.998 39.854-19.288 8.46 3.085-56.621 116.217-228.767 220.522-206.815 142.729 30.038 12.683 271.168 8.755 288.659-.377 1.678 1.715 3.305 1.338 4.983Zm1864.22 132.923c-3.527 20.71-41.603 220.022 66.975 207.204 70.6-8.335 134.026-117.639 160.676-164.787 10.926-19.33 47.246-94.802 45.451-104.719-4.063-22.459-106.956 8.796-144.878-136.961-8.617-33.12 13.014-115.434-23.87-52.883-86.04 145.914-85.119 178.369-104.354 252.147Zm976.619-851.652c1.795-8.889 5.649-17.143 9.692-61.021 5.87-63.711-42.651-27.974-78.49 32.745-91.353 154.771-130.931 278.425-184.91 425.993-40.202 109.903-47.238 110.382-42.278 115.401 4.588 4.644 10.26-3.295 10.797-4.045 100.067-140.052 216.438-284.942 285.19-509.073Zm-1227.805 556.609c-2.237-12.948-5.288-54.102-32.928-66.048-60.679-26.224-111.484 99.558-66.425 181.807 13.722 25.049 68.49 81.289 81.853 35.014 21.242-73.562 18.088-138.644 17.501-150.772Zm569.166 67.897c.583-7.645 5.424-71.069-4.005-95.758-1.502-3.932-13.987-36.626-34.787-39.469-91.605-12.524-107.287 197.009-6.895 232.353 33.38 11.752 30.959-20.278 45.687-97.125Zm585.034 457.26c19.796-6.54 145.472-48.059 105.766-238.173-3.792-18.158-20.435-5.266-62.632 23.505-134.267 91.545-174.8 228.06-43.135 214.668Zm-1356.707-497.014c-53.274 76.914-153.233 271.971-119.661 424.855 8.613 39.224 60.917 89.489 142.102 8.802 78.073-77.595 125.51-203.749 130.123-214.059 15.507-34.658-26.381-14.94-71.874-48.06-73.491-53.502-71.753-114.547-68.734-165.569-1.68-5.827-3.359-6.666-5.039-7.505-2.305-1.151-4.835-1.468-6.916 1.536Zm914.243-308.921c-8.185 28.152-1.893 45.055-43.798 44.747-33.445-.245 24.189-74.26-7.275-77.082-51.319-4.603-55.526 5.425-57.325 9.715-20.519 48.913-6.828 74.916-51.886 66.93-19.17-3.397-9.697-22.946-7.179-31.37 8.7-29.109 23.594-44.585-6.855-45.166-8.253-.158-43.731 6.972-37.859-15.843 10.446-40.591 29.545-25.364 58.47-28.081 9.677-.909 12.614-1.845 30.031-61.426 8.83-30.208-61.984-3.464-57.161-27.777 6.534-32.942 14.256-31.602 47.685-31.655 32.929-.052 28.239-11.595 36.783-43.235 9.194-34.047 9.969-41.751 45.331-40.27 28.246 1.183-22.869 77.542-.649 83.26 1.093.281 49.084 1.455 56.23-1.464 13.175-5.382 20.298-77.634 34.416-81.139 11.13-2.763 41.016-1.791 37.891 11.257-13.713 57.262-29.787 71.415-4.387 71.602 9.164.067 18.322-.592 27.486-.615 1.303-.003 14.425-.035 11.714 11.317-8.295 34.731-17.228 30.925-52.889 32.596-18.035.845-21.673 26.604-24.746 37.009-.821 2.781-9.306 31.51-5.338 35.853 12.659 13.854 64.304-18.281 51.377 32.212-4.312 16.842-14.593 16.089-21.121 16.11-40.618.129-40.171.056-40.749.23-12.08 3.631-14.765 21.887-18.197 32.286Zm-77.565-137.763c-9.969 37.362-22.006 62.182-.744 62.491 26.976.392 51.003 4.534 57.117-13.902 3.439-10.37 20.049-54.638 11.307-62.216-4.357-3.777-53.378-2.031-54.929-1.687-10.639 2.364-8.718 5.073-12.751 15.314m-3192.87 92.666c-15.664-7.566-8.21-12.584-9.18-44.977-.014-.468 17.971-170.471-283.889-286.049-32.802-12.559-26.163 13.021-59.51 67.567-19.976 32.674-17.065 33.94-223.859 423.142-7.68 14.454-23.953 37.587-11.285 43.004 32.559 13.924 179.742 52.032 268.741 170.264 54.167 71.958 69.782 164.155 72.366 179.414 9.382 55.393 5.491 55.532 1.095 143.231-.967 19.293-11.258 12.226-12.402 7.138-3.327-14.793 18.915-207.847-356.449-283.64-195.268-39.428-329.588-17.947-334.705-21.213-9.271-5.917 15.846-38.482 37.815-79.963 36.268-68.476 302.289-547.695 319.448-580.928 19.986-38.71 15.948-50.723 59.311-51.742 34.516-.811 34.268-.952 68.622-2.926 17.143-.985 11.129 9.842-8.072 45.875-17.962 33.708-44.176-2.546-63.951 30.006-8.276 13.623-6.335 14.403-95.478 174.881-52.277 94.111-203.664 373.284-204.858 378.382-5.093 21.746 10.853 10.37 70.454 15.246 48.282 3.95 186.474 7.845 348.483 97.466 27.313 15.109 88.35 59.959 110.591 100.87 9.92 18.249 25.475 21.938 20.551 6.385-.566-1.787-38.653-81.222-61.772-109.285-37.544-45.574-70.868-89.803-238.69-146.777-33.287-11.301-103.424-25.691-104.788-31.541-2.452-10.521 57.261-112.505 95.088-186.817 12.587-24.728 16.63-22.312 162.088-306.641 6.464-12.636 77.371-151.239 82.139-157.258 5.081-6.416 8.673-10.951 99.886 22.107 29.415 10.661 32.275 25.094 56.728 4.849 12.38-10.249 81.207-73.547 184.183-84.567 203.493-21.777 267.709 97.64 279.209 119.025 109.193 203.056-86.914 514.897-193.077 758.708-39.738 91.263-158.995 319.4-128.074 440.751 17.58 68.993 123.461 64.187 207.898-19.624 297.119-294.915 533.929-1081.193 557.3-1102.525 3.456-3.154 179.576-52.112 181.912-50.407 6.261 4.571 1.203 6.419-52.418 144.251-312.001 801.993-388.053 1137.157-266.026 1264.366 13.442 14.013 49.773 48.593 119.643 36.32 12.02-2.112 53.444-30.309 46.502-12.553-.971 2.484-36.404 44.336-93.995 56.441-47.63 10.012-94.612 18.636-159.521-18.893-92.372-53.408-145.89-171.77-91.84-468.689 14.402-79.116 42.295-153.148 46.713-165.184 12.414-33.82-11.63-4.894-12.141-4.008-7.679 13.301-14.271 47.339-96.89 183.675-28.645 47.268-185.847 330.694-386.354 316.01-96.185-7.044-179.221-95.905-158.316-255.551 50.684-387.052 453.534-848.419 340.578-1102.689-40.933-92.143-205.133-80.194-290.352-13.363-31.537 24.732 37.064 22.951 116.423 127.503 68.406 90.123 55.005 205.866 44.129 230.933Zm1612.442 64.274c7.857-20.188 1.392-32.726 22.822-28.07 7.854 1.706 100.235 29.903 110.38 33.861 17.944 7.002-3.74 48.273-7.69 49.643-9.188 3.185-9.563 1.557-116.771-33.755-18.138-5.974-8.937-20.334-8.741-21.68Zm216.414-422.609c2.382-.192 2.784-4.779 5.166-4.971 8.512-.686.013 36.851 2.792 71.31 9.321 115.565 29.742 162.256 39.127 198.982 4.763 18.64-17.163 21.168-41.286 42.037-55.081 47.65-64.222 80.213-70.032 87.887-3.268 4.315-7.633 10.08-67.12-8.552-46.769-14.649-65.375-15.46-65.278-32.087.419-72.06 5.26-73.081-18.303-143.795-7.31-21.938 12.487-24.788 33.135-43.23 165.447-147.78 140.482-176.536 159.545-177.154 14.815-.481-.936 9.021-51.02 178.124-11.345 38.305-39.067 27.741-46.646 55.191-18.099 65.549 107.504 56.232 66.145-14.776-3.248-5.577-8.123-13.946 14.318-79.389 33.483-97.64 28.808-102.845 39.459-129.576Zm2408.966 218.221c-27.317 117.381-76.749 308.951-83.665 335.755-23.449 90.876-21.745 91.932-27.922 97.15-.856.723-.723 3.877-97.22 3.892-24.052.004-37.924 5.028-31.311-18.377 1.085-3.841 4.032-32.814 24.5-32.936 15.309-.092 58.544 4.211 62.875-8.342 11.92-34.555 18.158-76.489 48.745-185.217 4.759-16.917-.156-18.126 54.524-212.795 9.625-34.268-14.854-18.906-69.782-22.859-16.102-1.159-1.969-49.265 13.553-50.62 15.845-1.383 106.964-.525 116.265-.437 16.851.159 10.545 9.602-2.587 65.961-.543 2.33-.591 2.135-7.974 28.825ZM2589.7 670.455c-34.943 106.903-31.769 109.94-40.511 114.114-8.523 4.07-92.781 1.897-100.847 1.689-22.316-.576-11.768-44.738 13.668-44.969 31.574-.287 50.376 9.077 60.274-22.331 50.502-160.261 106.37-305.127 102.717-314.603-5.443-14.117-68.46 8.899-60.723-21.231 9.04-35.206 19.249-28.971 55.457-29.114 35.828-.142 69.401-3.416 71.27 8.026 1.54 9.431-65.428 195.976-101.305 308.419m-365.812-252.161c17.623-53.25 18.507-64.157 39.168-64.363 88.402-.88 89.557-2.432 94.724 3.117 4.553 4.889-2.134 24.988-2.821 27.053-7.888 23.708-49.112 11.63-64.116 14.514-7.581 1.457-13.118 2.521-39.069 88.233-31.48 103.973-81.804 235.795-79.144 246.694 2.094 8.581 5.883 4.65 49.152 7.102 19.462 1.103 4.932 37.691 1.181 41.443-8.755 8.757-114.677 3.171-115.737 2.496-5.685-3.621 3.078-28.9 3.904-31.283 25.433-73.369 96.745-289.574 112.757-335.005Z"/></svg>